<svg id="Layer_1" data-name="Layer 1" xmlns="http://www.w3.org/2000/svg" viewBox="0 0 79.213 13.108"><defs><style>.cls-1,.cls-2{fill:#fff;}.cls-1{fill-rule:evenodd;}</style></defs><title>thm_logo_white</title><path class="cls-1" d="M2.4,0.045c1.689,0,3.416.078,5.1,0.045,2.685-.053,5.362-0.107,7.87-0.07a0.558,0.558,0,0,1,.545.328,0.459,0.459,0,0,1-.287.525c-1.021-.035-2.026-0.1-3.107-0.094l-2.744.072a32.891,32.891,0,0,0-.459,4.086C9.376,6.258,9.361,7.58,9.38,8.9a0.443,0.443,0,0,1,.267.453,0.736,0.736,0,0,1-.65.717,0.761,0.761,0,0,1-.731-0.354,1.055,1.055,0,0,1-.088-0.4,1.865,1.865,0,0,1,.1-0.513A4.078,4.078,0,0,0,8.28,8.233l-0.19-1.06a10.155,10.155,0,0,1,.2-1.813L8.285,1.027C8.234,1.021,8.183.906,8.134,0.9,7.646,0.857,7.14.924,6.654,0.879l-1.611.073a2.208,2.208,0,0,1-.186.228c-0.081.063-.2,0.086-0.267,0.148a23.569,23.569,0,0,1-2.383.1C1.643,1.457.989,1.472,0.425,1.506c-0.508-.227-0.469-0.3-0.35-1A2.779,2.779,0,0,1,.685.072c0.57,0,1.141-.025,1.711-0.027h0Z"/><path class="cls-1" d="M11.334,5.286a2.962,2.962,0,0,1,2.021-1.351,1.1,1.1,0,0,1,1.26.707,1.687,1.687,0,0,1-.09,1.166A5.482,5.482,0,0,1,12.057,8.59c0.3,0.336.862,0.381,1.765,0.045A4.232,4.232,0,0,0,15.3,6.918a0.462,0.462,0,0,1,.478-0.271c0.171,0.15.231,0.223,0.089,0.648a6.129,6.129,0,0,1-.992,1.832,2.453,2.453,0,0,1-1.621.795,2.225,2.225,0,0,1-2.279-.506c-0.942-1.252-.513-2.785.355-4.13h0Zm0.31,2.274a2.19,2.19,0,0,1,.309-1.445A2.612,2.612,0,0,1,12.631,5.3a4.894,4.894,0,0,1,.5-0.318,0.325,0.325,0,0,1,.445.223,2.559,2.559,0,0,1-.266.966,3.076,3.076,0,0,1-.7.8,3.725,3.725,0,0,1-.967.6h0Z"/><path class="cls-1" d="M24.189,7.1a0.279,0.279,0,0,0-.414.047,12.008,12.008,0,0,1-.781,1.859,0.868,0.868,0,0,1-.969.438c-1.437-.828-1.315-3.361-2.082-3.988-0.153-.146-0.479-0.337-0.625-0.1a5.19,5.19,0,0,0,.438-0.833c0.095-.214.568-1.476,0.612-1.668,0.262-1.163.231-2.407-.324-2.7a1.379,1.379,0,0,0-1.439.1,2.715,2.715,0,0,0-.843,1.127,16.031,16.031,0,0,0-1.131,3.2,8.238,8.238,0,0,0,.144,3.85c0.2,0.639.529,1.45,1.021,1.478,0.577-.016.7-0.244,0.914-1.027,0.049-.182.16-0.551,0.218-0.772a5.727,5.727,0,0,1,.47-1.181s0.119-.091.266,0.438c0.406,1.469,1.205,3.021,2.141,3.219a2.247,2.247,0,0,0,1.594-.516c0.605-.5.554-0.781,0.955-2.346A0.449,0.449,0,0,0,24.189,7.1ZM17.8,8l-0.145-.335a1.817,1.817,0,0,1,.622-0.8ZM17.573,5.883A5.166,5.166,0,0,1,18.035,3.2a6.071,6.071,0,0,1,1.279-2.08,0.261,0.261,0,0,1,.256.271A7.4,7.4,0,0,1,17.573,5.883Z"/><path class="cls-1" d="M24.7,4.978c0,0.631.026,0.793,0.027,1.425s-0.016,1.3-.035,1.946a3.363,3.363,0,0,0,.055.707,0.371,0.371,0,0,0,.4.4,0.552,0.552,0,0,0,.6-0.436A8.161,8.161,0,0,1,26.8,6.265a14.764,14.764,0,0,0,.371,2.705,1.448,1.448,0,0,0,.947,1.189,1.757,1.757,0,0,0,1.273-.8,7.812,7.812,0,0,0,1.066-2.006,1.685,1.685,0,0,0-.119-1.745c-0.115-.118-0.3-0.212-0.413.032-0.279.621-.465,1.279-0.7,1.92a4.246,4.246,0,0,1-.881,1.32,4.617,4.617,0,0,1-.264-0.852,26.108,26.108,0,0,1-.285-3.02,0.821,0.821,0,0,0-.553-0.732,0.6,0.6,0,0,0-.675.143,5.682,5.682,0,0,0-.833,1.492,1.828,1.828,0,0,1-.18.273,10.619,10.619,0,0,0,.262-1.646,0.513,0.513,0,0,0-.153-0.371c-0.009-.009,0,0.011,0,0a0.566,0.566,0,0,0-.6-0.121,0.448,0.448,0,0,0-.392.5Z"/><path class="cls-1" d="M34.279,4.284a3.021,3.021,0,0,0-2.955,1.188,3.016,3.016,0,0,0-.014,2.646,3.086,3.086,0,0,0,1.924,1.77,4.333,4.333,0,0,0,2.75-.207A2.942,2.942,0,0,0,37.5,8.054,3.17,3.17,0,0,0,39.16,6.131a0.347,0.347,0,0,0-.528-0.389,6.9,6.9,0,0,1-1.046.943c0-1.387-.748-2.66-2.117-2.66a3.262,3.262,0,0,0-1.189.259h0ZM33.4,5.344a1.278,1.278,0,0,0-.788.244,1.515,1.515,0,0,0-.542,1.42,2.118,2.118,0,0,0,1.281,1.83,2.336,2.336,0,0,0,1.637.082,1.674,1.674,0,0,0,.916-0.594,4.687,4.687,0,0,1-.981,0,2.284,2.284,0,0,1-1.484-.969A1.607,1.607,0,0,1,33.4,5.344h0Zm1.562,0.09a0.559,0.559,0,0,1,.528-0.361,1.155,1.155,0,0,1,.931.658,3.3,3.3,0,0,1,.232,1.395,2.719,2.719,0,0,1-1.278.077,1.294,1.294,0,0,1-.931-0.413,0.715,0.715,0,0,1-.09-0.826,0.684,0.684,0,0,1,.607-0.529h0Z"/><path class="cls-1" d="M39.523,4.646c-0.092.676-.1,1.287-0.149,2.039a11.494,11.494,0,0,0,.032,2.582,0.5,0.5,0,0,0,.349.35A0.732,0.732,0,0,0,40.232,9.6a0.628,0.628,0,0,0,.324-0.23,13.311,13.311,0,0,1,.953-2.723c0.223,0.754.219,1.679,0.4,2.555a0.528,0.528,0,0,0,.283.451A0.652,0.652,0,0,0,42.969,9.5c0.554-1.079.749-2.03,1.3-3.007a10.744,10.744,0,0,0,.506,2.84,1.268,1.268,0,0,0,.785.813A1.2,1.2,0,0,0,46.9,9.541l0.254-.516A4.967,4.967,0,0,0,47.709,7.4a2.291,2.291,0,0,0-.059-0.809,0.55,0.55,0,0,0-.344-0.431,0.323,0.323,0,0,0-.424.167,10.931,10.931,0,0,1-1,2.607,2.864,2.864,0,0,1-.408-1.516c-0.041-.541-0.047-1.5-0.041-2.524a0.606,0.606,0,0,0-.381-0.6,0.645,0.645,0,0,0-.672.047,12.509,12.509,0,0,0-1.7,2.955c-0.1-.572-0.144-1.223-0.22-1.795a0.952,0.952,0,0,0-.893-0.645,0.768,0.768,0,0,0-.5.322,11.16,11.16,0,0,0-.607.981,8.82,8.82,0,0,1,.168-1.46c0.033-.234-0.2-0.312-0.5-0.361a0.511,0.511,0,0,0-.605.311h0Z"/><path class="cls-1" d="M53.945,5.24a2.555,2.555,0,0,0-.676-0.734,1.094,1.094,0,0,0-.117-0.082A3.235,3.235,0,0,0,52.175,4a3.288,3.288,0,0,0-2.324.3,3.471,3.471,0,0,0-1.639,1.719,3.806,3.806,0,0,0,.3,3.166,2.111,2.111,0,0,0,2.053.979A3.007,3.007,0,0,0,52.371,9a1.749,1.749,0,0,0,1.1.879,1.623,1.623,0,0,0,1.408-.385A4.748,4.748,0,0,0,55.92,8.183,0.994,0.994,0,0,0,56.1,7.564l-0.078-.322a0.447,0.447,0,0,0-.375-0.221,0.556,0.556,0,0,0-.617.4,0.788,0.788,0,0,0,0,.567,2.059,2.059,0,0,1-.738.71c-0.605.351-1.037,0-1.16-1.1A1.806,1.806,0,0,0,53.4,6.351a4.325,4.325,0,0,1,.527-0.48,0.473,0.473,0,0,0,.014-0.631h0Zm-2.914-.316a1.823,1.823,0,0,1,1.494.352,7.247,7.247,0,0,0-.441,2.4,3.252,3.252,0,0,1-1.074,1.314,1.046,1.046,0,0,1-.855.139C49.341,8.891,49.037,7.713,49.037,7a2.064,2.064,0,0,1,.877-1.555,4.217,4.217,0,0,1,1.117-.518h0Z"/><path class="cls-1" d="M56.531,4.465c-0.053,1.342-.127,2.875-0.043,4.7a0.573,0.573,0,0,0,.539.38,0.979,0.979,0,0,0,.6-0.42,5.315,5.315,0,0,1,.976-2.75c0.428,1.342-.045,3.349,1.283,3.711a1.179,1.179,0,0,0,1.188-.481,7.194,7.194,0,0,0,1.217-2.353,1.438,1.438,0,0,0-.014-1.416,0.5,0.5,0,0,0-.656.25,9.02,9.02,0,0,1-1.463,2.754c-0.357-.027-0.287-2.488-0.627-3.959a0.722,0.722,0,0,0-.549-0.539,0.741,0.741,0,0,0-.719.26,8.775,8.775,0,0,0-.814,1.734,1.318,1.318,0,0,1-.041-0.359,10.5,10.5,0,0,1,.057-1.5,0.466,0.466,0,1,0-.932-0.014h0Z"/><path class="cls-1" d="M63.121,4.783c-0.406,1.984-.623,3.7.633,4.831a2.882,2.882,0,0,0,2.85.411,2.511,2.511,0,0,0,1.609-1.641,2.445,2.445,0,0,0,.172-1.266,0.44,0.44,0,0,0-.307-0.484,0.227,0.227,0,0,0-.264.186A2.812,2.812,0,0,1,66.642,8.9a2.292,2.292,0,0,1-1.808-.033A2.427,2.427,0,0,1,63.791,7.15a4.708,4.708,0,0,1,.3-1.441,1.3,1.3,0,0,0,.014-0.818,0.564,0.564,0,0,0-.988-0.107h0Z"/><path class="cls-1" d="M63.236,3.135a0.737,0.737,0,0,1,.758-0.219,0.643,0.643,0,0,1,.519.489,0.74,0.74,0,0,1-.269.716,0.811,0.811,0,0,1-.863.042,0.583,0.583,0,0,1-.34-0.5,0.685,0.685,0,0,1,.2-0.531h0Z"/><path class="cls-1" d="M69.58,4.6a9.414,9.414,0,0,0-.867,2.6,2.381,2.381,0,0,0,.471.506c-0.3-.023-0.08,1.682-0.143,2.385a2.053,2.053,0,0,1-.734,1.422,2.238,2.238,0,0,1-1.219.484,1.93,1.93,0,0,1-1.2-.437,6.113,6.113,0,0,0-.551-0.5c-0.34-.263-0.652-0.122-0.691.132-0.072.485,0.047,1.1,1.289,1.7a3.045,3.045,0,0,0,2.312-.018A3.233,3.233,0,0,0,69.775,11.4a3.1,3.1,0,0,0,.365-1.371,29.217,29.217,0,0,1,.232-4c0.092-.424.17-0.831,0.262-1.255A0.61,0.61,0,0,0,69.58,4.6h0Z"/><path class="cls-1" d="M69.213,2.969a0.823,0.823,0,0,1,.656-0.381,0.872,0.872,0,0,1,.5.159,0.568,0.568,0,0,1,.269.565,0.585,0.585,0,0,1-.441.566,0.925,0.925,0,0,1-.873-0.172,0.609,0.609,0,0,1-.111-0.738h0Z"/><path class="cls-1" d="M77.2,5.576a2.6,2.6,0,0,0-1.266-1.29,3.622,3.622,0,0,0-3.477.454,2.312,2.312,0,0,0-1.014,1.316,4.759,4.759,0,0,0-.188,1.688,3.1,3.1,0,0,0,.629,1.687,1.8,1.8,0,0,0,1.48.844,2.823,2.823,0,0,0,1.338-.351,4.365,4.365,0,0,0,.885-0.812,2,2,0,0,0,.717.729,1.536,1.536,0,0,0,1.248.027,2.415,2.415,0,0,0,1.187-.983c0.191-.388.9-1.581,0.084-1.743a0.444,0.444,0,0,0-.512.334c-0.119.689-.275,1.314-1.006,1.385a0.705,0.705,0,0,1-.572-0.094,0.957,0.957,0,0,1-.385-0.811A8,8,0,0,0,76.6,6.39a0.758,0.758,0,0,1,.088-0.182,0.918,0.918,0,0,0,.5-0.393,0.329,0.329,0,0,0,.012-0.24h0Zm-1.508-.069a1.286,1.286,0,0,0-1.254-.513A2.465,2.465,0,0,0,72.56,6.058a2.554,2.554,0,0,0-.129,2.373,1.216,1.216,0,0,0,1.172.937,1.75,1.75,0,0,0,1.328-.906,4.314,4.314,0,0,0,.5-1.418,7.155,7.155,0,0,1,.266-1.538h0Z"/><path class="cls-2" d="M77.5,2.81V1.648h0.516a0.663,0.663,0,0,1,.234.031,0.263,0.263,0,0,1,.131.111,0.333,0.333,0,0,1,.047.175,0.283,0.283,0,0,1-.08.207,0.4,0.4,0,0,1-.244.108,0.437,0.437,0,0,1,.09.058,1.009,1.009,0,0,1,.129.154l0.2,0.317H78.33l-0.156-.242c-0.045-.07-0.08-0.123-0.109-0.16a0.343,0.343,0,0,0-.08-0.078A0.238,0.238,0,0,0,77.916,2.3a0.558,0.558,0,0,0-.086,0H77.652V2.81H77.5Zm0.154-.65h0.33a0.463,0.463,0,0,0,.164-0.021,0.174,0.174,0,0,0,.09-0.069,0.183,0.183,0,0,0,.031-0.1,0.18,0.18,0,0,0-.058-0.136,0.285,0.285,0,0,0-.189-0.055H77.652V2.16h0Z"/><path class="cls-2" d="M77.974,3.327a1.089,1.089,0,1,1,1.088-1.091A1.091,1.091,0,0,1,77.974,3.327Zm0-1.962a0.873,0.873,0,1,0,.873.871A0.873,0.873,0,0,0,77.974,1.365Z"/></svg>